<?xml version="1.0" standalone="no"?>
<!DOCTYPE svg PUBLIC "-//W3C//DTD SVG 20010904//EN"
 "http://www.w3.org/TR/2001/REC-SVG-20010904/DTD/svg10.dtd">
<svg version="1.0" xmlns="http://www.w3.org/2000/svg"
 width="500.000000pt" height="500.000000pt" viewBox="0 0 500.000000 500.000000"
 preserveAspectRatio="xMidYMid meet">
<metadata>
Created by potrace 1.11, written by Peter Selinger 2001-2013
</metadata>
<g transform="translate(0.000000,500.000000) scale(0.100000,-0.100000)"
fill="#000000" stroke="none">
<path d="M1623 4378 l-863 -622 0 -1256 0 -1256 866 -623 c697 -501 870 -621
884 -615 11 5 404 286 874 624 l855 615 0 1255 0 1255 -860 619 c-474 340
-869 620 -878 622 -9 2 -380 -259 -878 -618z m1741 -32 l846 -609 0 -1238 0
-1237 -848 -611 c-467 -335 -854 -611 -859 -613 -6 -2 -396 274 -867 612
l-856 615 0 1235 1 1235 857 616 c471 339 862 613 868 610 6 -3 392 -280 858
-615z"/>
<path d="M2490 4850 c0 -5 7 -10 16 -10 8 0 12 5 9 10 -3 6 -10 10 -16 10 -5
0 -9 -4 -9 -10z"/>
<path d="M2556 4813 c-11 -11 -6 -23 9 -23 8 0 15 4 15 9 0 13 -16 22 -24 14z"/>
<path d="M2412 4798 c6 -18 28 -21 28 -4 0 9 -7 16 -16 16 -9 0 -14 -5 -12
-12z"/>
<path d="M2340 4744 c0 -17 22 -14 28 4 2 7 -3 12 -12 12 -9 0 -16 -7 -16 -16z"/>
<path d="M2630 4745 c0 -8 5 -15 10 -15 6 0 10 7 10 15 0 8 -4 15 -10 15 -5 0
-10 -7 -10 -15z"/>
<path d="M2266 4703 c-11 -11 -6 -23 9 -23 8 0 15 4 15 9 0 13 -16 22 -24 14z"/>
<path d="M1727 4158 l-767 -553 0 -1107 0 -1107 766 -551 c422 -303 772 -549
779 -546 7 2 223 156 479 340 429 309 468 335 492 326 36 -14 37 -13 32 19 -4
29 6 37 264 222 l268 193 0 1105 -1 1106 -765 550 c-421 303 -768 551 -772
553 -4 1 -353 -246 -775 -550z m1536 -32 l747 -537 0 -1089 0 -1089 -255 -183
c-140 -101 -258 -184 -262 -185 -5 -2 -19 18 -33 44 -34 66 -149 185 -224 231
-89 57 -193 92 -272 92 -49 0 -64 3 -64 14 0 16 49 178 56 185 2 2 25 -7 51
-21 156 -84 354 -77 506 17 31 20 57 41 57 47 0 17 -67 78 -85 78 -15 0 -13 5
8 26 38 38 52 88 38 135 -13 43 -32 53 -77 40 l-31 -9 9 39 c16 61 3 105 -34
118 -17 6 -42 11 -55 11 -20 0 -22 3 -13 19 17 33 12 69 -12 82 -26 14 -92 17
-130 6 -25 -7 -28 -5 -28 16 0 38 -20 86 -40 97 -33 17 -47 11 -65 -30 -18
-40 -35 -52 -35 -25 0 30 -24 64 -51 74 -36 13 -47 -2 -84 -112 -53 -160 -53
-325 1 -479 14 -40 26 -77 27 -83 2 -5 6 -15 10 -21 3 -6 -3 -37 -14 -69 -11
-32 -33 -117 -50 -189 -49 -218 -86 -312 -175 -447 -69 -104 -76 -102 -39 13
45 140 82 310 96 446 20 196 -15 421 -111 707 -28 82 -50 150 -50 151 0 1 19
5 43 9 161 24 251 68 359 176 62 62 85 94 121 170 25 52 53 123 62 159 32 125
32 440 1 440 -8 0 -21 -21 -31 -47 -50 -137 -123 -222 -319 -373 -178 -137
-246 -215 -282 -324 l-17 -50 -26 59 c-14 33 -46 102 -72 153 l-46 94 54 56
c117 123 212 297 256 472 16 66 21 117 21 230 1 160 -10 210 -47 210 -23 0
-81 -40 -114 -79 l-23 -26 0 58 c0 62 -17 113 -43 136 -14 11 -21 11 -42 -3
-14 -10 -34 -31 -44 -47 -21 -34 -25 -31 -36 21 -20 96 -54 136 -103 123 -22
-5 -44 -54 -65 -148 l-14 -60 -27 86 c-30 95 -59 149 -79 149 -41 0 -102 -110
-113 -203 l-7 -57 -40 45 c-21 25 -52 52 -68 60 -29 16 -95 20 -102 8 -8 -14
12 -158 27 -201 8 -23 14 -42 12 -42 -2 0 -27 15 -54 34 -28 18 -64 38 -81 44
-29 10 -33 9 -43 -13 -13 -29 2 -99 37 -167 l24 -46 -32 9 c-52 15 -163 15
-181 0 -41 -34 -6 -99 126 -227 160 -156 229 -202 459 -302 165 -73 287 -134
316 -158 27 -22 92 -155 153 -309 24 -60 49 -123 56 -140 41 -100 126 -398
115 -403 -4 -1 -31 6 -60 16 -50 17 -55 22 -73 67 -111 284 -502 620 -858 739
-104 35 -210 55 -210 41 0 -4 23 -33 52 -64 57 -62 122 -148 222 -293 174
-254 310 -338 811 -504 l130 -43 13 -63 c17 -85 19 -326 3 -418 -23 -135 -98
-420 -111 -420 -4 0 -13 19 -20 43 -36 121 -132 271 -246 384 -160 160 -363
262 -591 298 -53 8 -56 -7 -15 -68 16 -23 62 -105 102 -182 151 -289 224 -366
446 -478 109 -55 204 -87 256 -87 21 0 38 -2 38 -5 0 -3 -25 -63 -56 -133 -54
-121 -96 -195 -126 -220 -11 -9 -151 87 -699 481 l-684 492 0 1094 0 1094 745
538 c410 296 752 537 761 535 8 -2 351 -245 762 -540z m-1138 -411 c35 -101
39 -123 45 -260 5 -82 13 -181 19 -220 13 -85 49 -268 58 -292 3 -10 4 -16 1
-13 -3 3 -65 149 -138 325 l-132 320 5 80 c4 80 27 144 65 188 14 16 16 16 27
0 6 -10 29 -67 50 -128z m176 94 c10 -13 25 -61 34 -105 15 -76 15 -87 -1
-160 -14 -62 -19 -147 -23 -394 l-6 -315 -32 130 c-81 324 -99 617 -49 786 28
94 43 105 77 58z m187 -223 c4 -174 -15 -310 -79 -561 -29 -110 -54 -210 -56
-222 -23 -106 -31 201 -13 512 13 221 45 357 98 418 14 16 17 16 31 2 13 -12
17 -44 19 -149z m-640 107 c18 -14 48 -48 67 -77 31 -45 300 -674 292 -682 -3
-3 -45 50 -197 251 -116 153 -172 245 -207 342 -23 65 -46 180 -38 194 8 12
47 -2 83 -28z m821 -74 c6 -18 11 -81 11 -141 0 -211 -58 -395 -181 -573 -54
-79 -135 -163 -125 -130 3 11 28 108 55 215 56 218 76 323 86 455 l7 90 59 58
c32 31 62 57 68 57 5 0 14 -14 20 -31z m-1006 -80 c64 -34 146 -112 182 -173
37 -64 80 -122 254 -351 l84 -110 -59 56 c-32 30 -97 88 -144 128 -242 209
-341 325 -357 424 -6 40 2 45 40 26z m-23 -216 c47 -13 71 -30 175 -127 66
-61 152 -138 190 -171 94 -79 232 -213 257 -248 l20 -29 -58 30 c-33 16 -104
49 -159 72 -225 96 -314 151 -456 287 -86 82 -149 161 -149 186 0 29 75 29
180 0z m1517 -368 c-6 -148 -21 -216 -76 -330 -49 -104 -115 -184 -203 -245
-76 -53 -124 -72 -236 -93 l-72 -14 20 35 c58 98 158 185 282 248 65 33 86 54
53 54 -20 0 -108 -44 -165 -83 -68 -47 -119 -96 -166 -160 -42 -56 -44 -57
-50 -33 -16 64 40 190 123 277 32 34 110 100 173 149 176 134 274 243 306 340
7 23 8 23 12 5 3 -11 2 -78 -1 -150z m-1408 -365 c283 -109 619 -406 745 -658
15 -30 25 -56 23 -58 -2 -3 -22 19 -44 48 -96 127 -220 241 -365 335 -63 41
-98 53 -98 35 0 -5 42 -36 93 -69 52 -34 125 -90 163 -125 72 -66 195 -200
190 -206 -9 -8 -339 133 -409 176 -97 58 -207 171 -296 302 -85 125 -146 206
-189 252 l-36 38 74 -21 c40 -11 107 -33 149 -49z m1250 -361 c16 -74 15 -86
-31 -314 l-42 -210 -25 75 c-19 61 -24 97 -25 190 -1 121 13 192 55 291 21 47
23 49 40 33 10 -9 23 -38 28 -65z m122 39 c16 -30 6 -100 -30 -207 -31 -93
-101 -254 -107 -248 -2 2 15 95 37 208 53 261 70 304 100 247z m170 -98 c29
-16 24 -31 -37 -101 -30 -35 -84 -104 -119 -154 -35 -49 -85 -110 -111 -135
l-46 -45 42 85 c51 101 106 240 115 292 6 30 14 39 43 52 44 18 86 20 113 6z
m100 -120 c14 -8 19 -21 19 -48 -1 -70 -16 -86 -170 -178 -124 -74 -238 -134
-256 -134 -2 0 22 26 54 58 32 31 87 98 121 147 94 134 127 165 174 165 21 0
47 -5 58 -10z m110 -161 c15 -29 -2 -87 -35 -118 -14 -13 -49 -29 -78 -36 -29
-8 -96 -25 -148 -38 -52 -14 -129 -28 -170 -31 l-75 -7 70 34 c39 19 112 59
163 91 129 78 214 120 254 125 4 1 12 -9 19 -20z m-3 -199 c19 -11 32 -26 30
-33 -7 -22 -151 -86 -218 -97 -81 -12 -173 1 -255 38 l-60 27 101 12 c55 7
145 26 200 42 119 35 158 37 202 11z m-1634 -145 c281 -81 511 -277 637 -540
74 -155 74 -169 -2 -90 -79 83 -182 161 -279 214 -83 45 -90 47 -90 27 0 -8
28 -29 63 -46 94 -48 183 -115 272 -204 77 -78 79 -81 52 -84 -44 -5 -134 26
-250 86 -199 104 -271 181 -404 432 -42 80 -87 162 -100 182 -13 21 -23 40
-23 43 0 11 41 4 124 -20z m1293 -220 c78 -39 112 -63 173 -124 69 -70 140
-175 126 -188 -10 -10 -270 68 -346 105 -79 37 -177 125 -214 191 l-19 34 41
-6 c67 -8 133 -46 199 -113 34 -35 65 -59 68 -54 9 15 -9 42 -63 92 -54 50
-112 84 -182 104 -45 14 -45 14 38 10 75 -2 91 -7 179 -51z m-178 -158 c68
-60 144 -96 304 -143 121 -36 127 -39 110 -54 -25 -23 -872 -630 -888 -636 -7
-3 -36 11 -65 32 l-51 37 29 31 c31 33 79 123 127 241 18 42 47 90 75 120 118
129 207 300 245 468 l6 29 28 -39 c15 -21 51 -59 80 -86z"/>
<path d="M2700 4696 c0 -9 7 -16 16 -16 9 0 14 5 12 12 -6 18 -28 21 -28 4z"/>
<path d="M2190 4635 c0 -9 5 -15 11 -13 6 2 11 8 11 13 0 5 -5 11 -11 13 -6 2
-11 -4 -11 -13z"/>
<path d="M2780 4640 c0 -5 5 -10 10 -10 6 0 10 5 10 10 0 6 -4 10 -10 10 -5 0
-10 -4 -10 -10z"/>
<path d="M2117 4593 c-12 -11 -8 -23 8 -23 8 0 15 7 15 15 0 16 -12 20 -23 8z"/>
<path d="M2850 4585 c0 -8 7 -15 15 -15 8 0 15 7 15 15 0 8 -7 15 -15 15 -8 0
-15 -7 -15 -15z"/>
<path d="M2040 4525 c0 -8 5 -15 10 -15 6 0 10 7 10 15 0 8 -4 15 -10 15 -5 0
-10 -7 -10 -15z"/>
<path d="M2930 4530 c0 -5 5 -10 10 -10 6 0 10 5 10 10 0 6 -4 10 -10 10 -5 0
-10 -4 -10 -10z"/>
<path d="M1967 4483 c-12 -11 -8 -23 8 -23 8 0 15 7 15 15 0 16 -12 20 -23 8z"/>
<path d="M3000 4474 c0 -9 5 -14 12 -12 18 6 21 28 4 28 -9 0 -16 -7 -16 -16z"/>
<path d="M3080 4425 c0 -8 5 -15 10 -15 6 0 10 7 10 15 0 8 -4 15 -10 15 -5 0
-10 -7 -10 -15z"/>
<path d="M1890 4420 c0 -5 5 -10 10 -10 6 0 10 5 10 10 0 6 -4 10 -10 10 -5 0
-10 -4 -10 -10z"/>
<path d="M1810 4365 c0 -8 7 -15 15 -15 8 0 15 7 15 15 0 8 -7 15 -15 15 -8 0
-15 -7 -15 -15z"/>
<path d="M3152 4368 c6 -18 28 -21 28 -4 0 9 -7 16 -16 16 -9 0 -14 -5 -12
-12z"/>
<path d="M1740 4316 c0 -9 5 -16 10 -16 6 0 10 4 10 9 0 6 -4 13 -10 16 -5 3
-10 -1 -10 -9z"/>
<path d="M3230 4315 c0 -8 5 -15 10 -15 6 0 10 7 10 15 0 8 -4 15 -10 15 -5 0
-10 -7 -10 -15z"/>
<path d="M1662 4259 c2 -6 8 -10 13 -10 5 0 11 4 13 10 2 6 -4 11 -13 11 -9 0
-15 -5 -13 -11z"/>
<path d="M3302 4259 c2 -6 8 -10 13 -10 5 0 11 4 13 10 2 6 -4 11 -13 11 -9 0
-15 -5 -13 -11z"/>
<path d="M1590 4205 c0 -9 5 -15 11 -13 6 2 11 8 11 13 0 5 -5 11 -11 13 -6 2
-11 -4 -11 -13z"/>
<path d="M3380 4204 c0 -9 5 -14 12 -12 18 6 21 28 4 28 -9 0 -16 -7 -16 -16z"/>
<path d="M3456 4163 c-11 -11 -6 -23 9 -23 8 0 15 4 15 9 0 13 -16 22 -24 14z"/>
<path d="M1510 4150 c0 -5 7 -10 15 -10 8 0 15 5 15 10 0 6 -7 10 -15 10 -8 0
-15 -4 -15 -10z"/>
<path d="M1440 4095 c0 -8 5 -15 10 -15 6 0 10 7 10 15 0 8 -4 15 -10 15 -5 0
-10 -7 -10 -15z"/>
<path d="M3530 4095 c0 -9 5 -15 11 -13 6 2 11 8 11 13 0 5 -5 11 -11 13 -6 2
-11 -4 -11 -13z"/>
<path d="M3607 4054 c-8 -8 1 -24 14 -24 5 0 9 7 9 15 0 15 -12 20 -23 9z"/>
<path d="M1360 4040 c0 -5 7 -10 15 -10 8 0 15 5 15 10 0 6 -7 10 -15 10 -8 0
-15 -4 -15 -10z"/>
<path d="M1287 3994 c-8 -8 1 -24 14 -24 5 0 9 7 9 15 0 15 -12 20 -23 9z"/>
<path d="M3680 3990 c0 -5 7 -10 15 -10 8 0 15 5 15 10 0 6 -7 10 -15 10 -8 0
-15 -4 -15 -10z"/>
<path d="M3760 3935 c0 -8 5 -15 10 -15 6 0 10 7 10 15 0 8 -4 15 -10 15 -5 0
-10 -7 -10 -15z"/>
<path d="M1210 3930 c0 -5 7 -10 15 -10 8 0 15 5 15 10 0 6 -7 10 -15 10 -8 0
-15 -4 -15 -10z"/>
<path d="M1132 3878 c6 -18 28 -21 28 -4 0 9 -7 16 -16 16 -9 0 -14 -5 -12
-12z"/>
<path d="M3830 3880 c0 -5 7 -10 15 -10 8 0 15 5 15 10 0 6 -7 10 -15 10 -8 0
-15 -4 -15 -10z"/>
<path d="M1060 3825 c0 -9 5 -15 11 -13 6 2 11 8 11 13 0 5 -5 11 -11 13 -6 2
-11 -4 -11 -13z"/>
<path d="M3910 3825 c0 -8 5 -15 10 -15 6 0 10 7 10 15 0 8 -4 15 -10 15 -5 0
-10 -7 -10 -15z"/>
<path d="M3986 3783 c-11 -11 -6 -23 9 -23 8 0 15 4 15 9 0 13 -16 22 -24 14z"/>
<path d="M982 3768 c6 -18 28 -21 28 -4 0 9 -7 16 -16 16 -9 0 -14 -5 -12 -12z"/>
<path d="M910 3716 c0 -9 7 -16 16 -16 9 0 14 5 12 12 -6 18 -28 21 -28 4z"/>
<path d="M4060 3715 c0 -8 5 -15 10 -15 6 0 10 7 10 15 0 8 -4 15 -10 15 -5 0
-10 -7 -10 -15z"/>
<path d="M4117 3674 c-8 -8 1 -24 14 -24 5 0 9 7 9 15 0 15 -12 20 -23 9z"/>
<path d="M852 3659 c2 -6 8 -10 13 -10 5 0 11 4 13 10 2 6 -4 11 -13 11 -9 0
-15 -5 -13 -11z"/>
<path d="M4116 3583 c-11 -11 -6 -23 9 -23 8 0 15 4 15 9 0 13 -16 22 -24 14z"/>
<path d="M852 3568 c6 -18 28 -21 28 -4 0 9 -7 16 -16 16 -9 0 -14 -5 -12 -12z"/>
<path d="M857 3483 c-12 -11 -8 -23 8 -23 8 0 15 7 15 15 0 16 -12 20 -23 8z"/>
<path d="M4112 3478 c6 -18 28 -21 28 -4 0 9 -7 16 -16 16 -9 0 -14 -5 -12
-12z"/>
<path d="M4117 3394 c-8 -8 1 -24 14 -24 5 0 9 7 9 15 0 15 -12 20 -23 9z"/>
<path d="M850 3380 c0 -5 7 -10 15 -10 8 0 15 5 15 10 0 6 -7 10 -15 10 -8 0
-15 -4 -15 -10z"/>
<path d="M4117 3303 c-12 -11 -8 -23 8 -23 8 0 15 7 15 15 0 16 -12 20 -23 8z"/>
<path d="M852 3288 c6 -18 28 -21 28 -4 0 9 -7 16 -16 16 -9 0 -14 -5 -12 -12z"/>
<path d="M850 3195 c0 -8 7 -15 15 -15 8 0 15 7 15 15 0 8 -7 15 -15 15 -8 0
-15 -7 -15 -15z"/>
<path d="M4110 3200 c0 -5 7 -10 15 -10 8 0 15 5 15 10 0 6 -7 10 -15 10 -8 0
-15 -4 -15 -10z"/>
<path d="M857 3113 c-12 -11 -8 -23 8 -23 8 0 15 7 15 15 0 16 -12 20 -23 8z"/>
<path d="M4117 3114 c-8 -8 1 -24 14 -24 5 0 9 7 9 15 0 15 -12 20 -23 9z"/>
<path d="M4117 3024 c-8 -8 1 -24 14 -24 5 0 9 7 9 15 0 15 -12 20 -23 9z"/>
<path d="M852 3009 c2 -6 8 -10 13 -10 5 0 11 4 13 10 2 6 -4 11 -13 11 -9 0
-15 -5 -13 -11z"/>
<path d="M852 2918 c6 -18 28 -21 28 -4 0 9 -7 16 -16 16 -9 0 -14 -5 -12 -12z"/>
<path d="M4110 2920 c0 -5 7 -10 15 -10 8 0 15 5 15 10 0 6 -7 10 -15 10 -8 0
-15 -4 -15 -10z"/>
<path d="M857 2833 c-12 -11 -8 -23 8 -23 8 0 15 7 15 15 0 16 -12 20 -23 8z"/>
<path d="M4112 2828 c6 -18 28 -21 28 -4 0 9 -7 16 -16 16 -9 0 -14 -5 -12
-12z"/>
<path d="M4117 2744 c-8 -8 1 -24 14 -24 5 0 9 7 9 15 0 15 -12 20 -23 9z"/>
<path d="M850 2730 c0 -5 7 -10 15 -10 8 0 15 5 15 10 0 6 -7 10 -15 10 -8 0
-15 -4 -15 -10z"/>
<path d="M4117 2653 c-12 -11 -8 -23 8 -23 8 0 15 7 15 15 0 16 -12 20 -23 8z"/>
<path d="M852 2638 c6 -18 28 -21 28 -4 0 9 -7 16 -16 16 -9 0 -14 -5 -12 -12z"/>
<path d="M850 2545 c0 -8 7 -15 15 -15 8 0 15 7 15 15 0 8 -7 15 -15 15 -8 0
-15 -7 -15 -15z"/>
<path d="M4110 2550 c0 -5 7 -10 15 -10 8 0 15 5 15 10 0 6 -7 10 -15 10 -8 0
-15 -4 -15 -10z"/>
<path d="M4117 2464 c-8 -8 1 -24 14 -24 5 0 9 7 9 15 0 15 -12 20 -23 9z"/>
<path d="M850 2450 c0 -5 7 -10 15 -10 8 0 15 5 15 10 0 6 -7 10 -15 10 -8 0
-15 -4 -15 -10z"/>
<path d="M4117 2374 c-8 -8 1 -24 14 -24 5 0 9 7 9 15 0 15 -12 20 -23 9z"/>
<path d="M852 2359 c2 -6 8 -10 13 -10 5 0 11 4 13 10 2 6 -4 11 -13 11 -9 0
-15 -5 -13 -11z"/>
<path d="M852 2268 c6 -18 28 -21 28 -4 0 9 -7 16 -16 16 -9 0 -14 -5 -12 -12z"/>
<path d="M4110 2270 c0 -5 7 -10 15 -10 8 0 15 5 15 10 0 6 -7 10 -15 10 -8 0
-15 -4 -15 -10z"/>
<path d="M857 2183 c-12 -11 -8 -23 8 -23 8 0 15 7 15 15 0 16 -12 20 -23 8z"/>
<path d="M4112 2178 c6 -18 28 -21 28 -4 0 9 -7 16 -16 16 -9 0 -14 -5 -12
-12z"/>
<path d="M4117 2094 c-8 -8 1 -24 14 -24 5 0 9 7 9 15 0 15 -12 20 -23 9z"/>
<path d="M850 2080 c0 -5 7 -10 15 -10 8 0 15 5 15 10 0 6 -7 10 -15 10 -8 0
-15 -4 -15 -10z"/>
<path d="M4117 2003 c-12 -11 -8 -23 8 -23 8 0 15 7 15 15 0 16 -12 20 -23 8z"/>
<path d="M852 1988 c6 -18 28 -21 28 -4 0 9 -7 16 -16 16 -9 0 -14 -5 -12 -12z"/>
<path d="M850 1895 c0 -8 7 -15 15 -15 8 0 15 7 15 15 0 8 -7 15 -15 15 -8 0
-15 -7 -15 -15z"/>
<path d="M4112 1899 c2 -6 8 -10 13 -10 5 0 11 4 13 10 2 6 -4 11 -13 11 -9 0
-15 -5 -13 -11z"/>
<path d="M856 1813 c-11 -11 -6 -23 9 -23 8 0 15 4 15 9 0 13 -16 22 -24 14z"/>
<path d="M4117 1814 c-8 -8 1 -24 14 -24 5 0 9 7 9 15 0 15 -12 20 -23 9z"/>
<path d="M4117 1723 c-12 -11 -8 -23 8 -23 8 0 15 7 15 15 0 16 -12 20 -23 8z"/>
<path d="M852 1709 c2 -6 8 -10 13 -10 5 0 11 4 13 10 2 6 -4 11 -13 11 -9 0
-15 -5 -13 -11z"/>
<path d="M850 1615 c0 -8 7 -15 15 -15 8 0 15 7 15 15 0 8 -7 15 -15 15 -8 0
-15 -7 -15 -15z"/>
<path d="M4110 1620 c0 -5 7 -10 15 -10 8 0 15 5 15 10 0 6 -7 10 -15 10 -8 0
-15 -4 -15 -10z"/>
<path d="M857 1533 c-12 -11 -8 -23 8 -23 8 0 15 7 15 15 0 16 -12 20 -23 8z"/>
<path d="M4117 1534 c-8 -8 1 -24 14 -24 5 0 9 7 9 15 0 15 -12 20 -23 9z"/>
<path d="M4117 1444 c-8 -8 1 -24 14 -24 5 0 9 7 9 15 0 15 -12 20 -23 9z"/>
<path d="M852 1429 c2 -6 8 -10 13 -10 5 0 11 4 13 10 2 6 -4 11 -13 11 -9 0
-15 -5 -13 -11z"/>
<path d="M4116 1353 c-11 -11 -6 -23 9 -23 8 0 15 4 15 9 0 13 -16 22 -24 14z"/>
<path d="M852 1338 c6 -18 28 -21 28 -4 0 9 -7 16 -16 16 -9 0 -14 -5 -12 -12z"/>
<path d="M910 1285 c0 -9 5 -15 11 -13 6 2 11 8 11 13 0 5 -5 11 -11 13 -6 2
-11 -4 -11 -13z"/>
<path d="M4062 1288 c6 -18 28 -21 28 -4 0 9 -7 16 -16 16 -9 0 -14 -5 -12
-12z"/>
<path d="M3990 1235 c0 -8 5 -15 10 -15 6 0 10 7 10 15 0 8 -4 15 -10 15 -5 0
-10 -7 -10 -15z"/>
<path d="M980 1230 c0 -5 7 -10 15 -10 8 0 15 5 15 10 0 6 -7 10 -15 10 -8 0
-15 -4 -15 -10z"/>
<path d="M1060 1175 c0 -8 5 -15 10 -15 6 0 10 7 10 15 0 8 -4 15 -10 15 -5 0
-10 -7 -10 -15z"/>
<path d="M3912 1179 c2 -6 8 -10 13 -10 5 0 11 4 13 10 2 6 -4 11 -13 11 -9 0
-15 -5 -13 -11z"/>
<path d="M3840 1125 c0 -8 5 -15 10 -15 6 0 10 7 10 15 0 8 -4 15 -10 15 -5 0
-10 -7 -10 -15z"/>
<path d="M1135 1120 c-3 -5 1 -10 9 -10 9 0 16 5 16 10 0 6 -4 10 -9 10 -6 0
-13 -4 -16 -10z"/>
<path d="M1210 1065 c0 -8 7 -15 15 -15 8 0 15 7 15 15 0 8 -7 15 -15 15 -8 0
-15 -7 -15 -15z"/>
<path d="M3760 1070 c0 -5 7 -10 15 -10 8 0 15 5 15 10 0 6 -7 10 -15 10 -8 0
-15 -4 -15 -10z"/>
<path d="M1290 1015 c0 -8 5 -15 10 -15 6 0 10 7 10 15 0 8 -4 15 -10 15 -5 0
-10 -7 -10 -15z"/>
<path d="M3690 1015 c0 -8 5 -15 10 -15 6 0 10 7 10 15 0 8 -4 15 -10 15 -5 0
-10 -7 -10 -15z"/>
<path d="M1360 960 c0 -5 7 -10 15 -10 8 0 15 5 15 10 0 6 -7 10 -15 10 -8 0
-15 -4 -15 -10z"/>
<path d="M3610 960 c0 -5 7 -10 15 -10 8 0 15 5 15 10 0 6 -7 10 -15 10 -8 0
-15 -4 -15 -10z"/>
<path d="M1440 905 c0 -8 5 -15 10 -15 6 0 10 7 10 15 0 8 -4 15 -10 15 -5 0
-10 -7 -10 -15z"/>
<path d="M3540 905 c0 -8 5 -15 10 -15 6 0 10 7 10 15 0 8 -4 15 -10 15 -5 0
-10 -7 -10 -15z"/>
<path d="M3466 863 c-11 -11 -6 -23 9 -23 8 0 15 4 15 9 0 13 -16 22 -24 14z"/>
<path d="M1510 850 c0 -5 7 -10 15 -10 8 0 15 5 15 10 0 6 -7 10 -15 10 -8 0
-15 -4 -15 -10z"/>
<path d="M1590 795 c0 -8 5 -15 10 -15 6 0 10 7 10 15 0 8 -4 15 -10 15 -5 0
-10 -7 -10 -15z"/>
<path d="M3382 798 c6 -18 28 -21 28 -4 0 9 -7 16 -16 16 -9 0 -14 -5 -12 -12z"/>
<path d="M3310 746 c0 -9 7 -16 16 -16 17 0 14 22 -4 28 -7 2 -12 -3 -12 -12z"/>
<path d="M1660 740 c0 -5 7 -10 15 -10 8 0 15 5 15 10 0 6 -7 10 -15 10 -8 0
-15 -4 -15 -10z"/>
<path d="M1740 685 c0 -9 5 -15 11 -13 6 2 11 8 11 13 0 5 -5 11 -11 13 -6 2
-11 -4 -11 -13z"/>
<path d="M3230 690 c0 -5 7 -10 15 -10 8 0 15 5 15 10 0 6 -7 10 -15 10 -8 0
-15 -4 -15 -10z"/>
<path d="M1817 644 c-8 -8 1 -24 14 -24 5 0 9 7 9 15 0 15 -12 20 -23 9z"/>
<path d="M3160 635 c0 -9 5 -15 11 -13 6 2 11 8 11 13 0 5 -5 11 -11 13 -6 2
-11 -4 -11 -13z"/>
<path d="M1890 574 c0 -17 22 -14 28 4 2 7 -3 12 -12 12 -9 0 -16 -7 -16 -16z"/>
<path d="M3080 580 c0 -5 7 -10 15 -10 8 0 15 5 15 10 0 6 -7 10 -15 10 -8 0
-15 -4 -15 -10z"/>
<path d="M1967 534 c-8 -8 1 -24 14 -24 5 0 9 7 9 15 0 15 -12 20 -23 9z"/>
<path d="M3010 525 c0 -8 5 -15 10 -15 6 0 10 7 10 15 0 8 -4 15 -10 15 -5 0
-10 -7 -10 -15z"/>
<path d="M2936 483 c-11 -11 -6 -23 9 -23 8 0 15 4 15 9 0 13 -16 22 -24 14z"/>
<path d="M2040 470 c0 -5 7 -10 15 -10 8 0 15 5 15 10 0 6 -7 10 -15 10 -8 0
-15 -4 -15 -10z"/>
<path d="M2120 415 c0 -8 5 -15 10 -15 6 0 10 7 10 15 0 8 -4 15 -10 15 -5 0
-10 -7 -10 -15z"/>
<path d="M2860 415 c0 -8 5 -15 10 -15 6 0 10 7 10 15 0 8 -4 15 -10 15 -5 0
-10 -7 -10 -15z"/>
<path d="M2787 373 c-12 -11 -8 -23 8 -23 8 0 15 7 15 15 0 16 -12 20 -23 8z"/>
<path d="M2190 360 c0 -5 7 -10 15 -10 8 0 15 5 15 10 0 6 -7 10 -15 10 -8 0
-15 -4 -15 -10z"/>
<path d="M2270 305 c0 -8 5 -15 10 -15 6 0 10 7 10 15 0 8 -4 15 -10 15 -5 0
-10 -7 -10 -15z"/>
<path d="M2710 310 c0 -5 5 -10 10 -10 6 0 10 5 10 10 0 6 -4 10 -10 10 -5 0
-10 -4 -10 -10z"/>
<path d="M2346 263 c-11 -11 -6 -23 9 -23 8 0 15 4 15 9 0 13 -16 22 -24 14z"/>
<path d="M2630 254 c0 -9 5 -14 12 -12 18 6 21 28 4 28 -9 0 -16 -7 -16 -16z"/>
<path d="M2560 205 c0 -8 5 -15 10 -15 6 0 10 7 10 15 0 8 -4 15 -10 15 -5 0
-10 -7 -10 -15z"/>
<path d="M2420 200 c0 -5 5 -10 10 -10 6 0 10 5 10 10 0 6 -4 10 -10 10 -5 0
-10 -4 -10 -10z"/>
<path d="M2482 149 c2 -6 8 -10 13 -10 5 0 11 4 13 10 2 6 -4 11 -13 11 -9 0
-15 -5 -13 -11z"/>
</g>
</svg>
